# This file uses centimeters as units for non-parametric coordinates.

mtllib Sofa.mtl
g default
v -3.361755 -2.731761 13.622248
v 3.460974 -2.731761 13.622248
v 3.460974 -0.913898 10.134950
v 3.460974 -0.913898 -10.333332
v 3.460974 -2.731761 -13.626085
v -1.999191 -0.913898 -9.202334
v -1.999191 -0.913898 9.476054
v -1.999191 3.973779 11.756323
v -1.999191 3.973761 13.615831
v 3.460974 3.973761 13.615831
v 3.460974 3.973779 11.756323
v -3.361755 3.973761 13.615831
v -3.361755 3.973779 11.756323
v -1.999191 3.973761 -13.591654
v -1.999191 3.973779 -11.495961
v 3.460974 3.973779 -11.495961
v 3.460974 3.973761 -13.591654
v -3.361755 3.973779 -11.495961
v -3.361755 3.973761 -13.591654
v -1.999191 -2.731761 13.682093
v 3.460974 -2.731761 13.682093
v 3.460974 3.973761 13.675673
v -1.999191 3.973761 13.675673
v -3.361755 -2.731761 13.682093
v -3.361755 3.973761 13.675673
v -3.460976 -2.731761 -13.626085
v -3.460976 -2.731761 13.622248
v -3.460976 -0.913898 10.134950
v -3.460976 -0.913898 -10.138787
v -3.460976 3.973761 13.615831
v -3.460976 3.973779 11.756323
v -3.460976 3.973779 -11.495961
v -3.460976 3.973761 -13.591654
v -1.999191 -2.731761 -13.681438
v 3.460974 -2.731761 -13.681438
v -1.999191 3.973761 -13.647003
v 3.460974 3.973761 -13.647003
v -3.361755 -2.731761 -13.681438
v -3.361755 3.973761 -13.647003
v -3.460976 -2.731761 -13.681438
v -3.460976 3.973761 -13.647003
vt 0.631954 0.687353
vt 0.679354 0.054186
vt 0.364719 0.799316
vt 0.380318 0.775559
vt 0.509614 0.157868
vt 0.508651 0.629522
vt 0.370741 0.645878
vt 0.221977 0.099891
vt 0.679354 0.004793
vt 0.824389 0.004793
vt 0.364719 0.065937
vt 0.364719 0.004733
vt 0.168887 0.003727
vt 0.168887 0.799504
vt 0.001969 0.828602
vt 0.001969 0.171732
vt 0.045805 0.255798
vt 0.045805 0.744565
vt 0.001969 0.135061
vt 0.824389 0.054186
vt 0.679354 0.727489
vt 0.679354 0.671823
vt 0.824389 0.671823
vt 0.001969 0.003435
vt 0.163666 0.003460
vt 0.824389 0.727489
vt 0.643161 0.671823
vt 0.163666 0.135132
vt 0.643161 0.727489
vt 0.643161 0.054186
vt 0.643161 0.004793
vt 0.001969 0.167898
vt 0.163666 0.168003
vt 0.679354 0.003203
vt 0.824389 0.003203
vt 0.163666 0.171840
vt 0.643161 0.003203
vt 0.640525 0.054186
vt 0.640525 0.004793
vt 0.163667 0.216693
vt 0.640525 0.727489
vt 0.525937 0.022515
vt 0.633152 0.100203
vt 0.517820 0.765404
vt 0.640525 0.671823
vt 0.389393 0.003390
vt 0.371796 0.129027
vt 0.364719 0.745010
vt 0.221977 0.697658
vt 0.001969 0.996673
vt 0.001969 0.865085
vt 0.163666 0.864782
vt 0.163666 0.996555
vt 0.001969 0.832317
vt 0.163666 0.831833
vt 0.163667 0.777388
vt 0.163666 0.828093
vt 0.001969 0.001992
vt 0.163666 0.002017
vt 0.163666 0.169447
vt 0.001969 0.169341
vt 0.001969 0.829932
vt 0.163666 0.829432
vt 0.163666 0.997890
vt 0.001969 0.998008
vt 0.824389 0.728960
vt 0.679354 0.728960
vt 0.643161 0.728960
vt 0.640525 0.728960
vn 0.000000 1.000000 0.000010
vn 0.000000 1.000000 0.000010
vn 0.000000 1.000000 0.000010
vn 0.000000 1.000000 0.000010
vn 0.000000 1.000000 0.000000
vn 0.000000 1.000000 0.000000
vn 0.000000 1.000000 0.000000
vn 0.000000 1.000000 0.000000
vn 0.000000 1.000000 -0.000009
vn 0.000000 1.000000 -0.000009
vn 0.000000 1.000000 -0.000009
vn 0.000000 1.000000 -0.000009
vn 1.000000 0.000000 0.000000
vn 1.000000 0.000000 0.000000
vn 1.000000 0.000000 0.000000
vn 1.000000 0.000000 0.000000
vn -1.000000 0.000000 0.000000
vn -1.000000 0.000000 0.000000
vn -1.000000 0.000000 0.000000
vn -1.000000 0.000000 0.000000
vn 0.000000 1.000000 -0.000009
vn 0.000000 1.000000 -0.000009
vn 0.000000 1.000000 0.000000
vn 0.000000 1.000000 0.000000
vn 0.000000 1.000000 0.000000
vn 0.000000 1.000000 0.000000
vn 0.000000 1.000000 0.000010
vn 0.000000 1.000000 0.000010
vn 0.000000 0.000957 1.000000
vn 0.000000 0.000957 1.000000
vn 0.000000 0.000957 1.000000
vn 0.000000 0.000957 1.000000
vn 1.000000 0.000000 0.000000
vn 1.000000 0.000000 0.000000
vn 1.000000 0.000000 0.000000
vn 1.000000 0.000000 0.000000
vn 0.055950 0.370114 -0.927300
vn 0.055950 0.370114 -0.927300
vn 0.055950 0.370114 -0.927300
vn 0.055950 0.370114 -0.927300
vn 0.000000 0.000957 1.000000
vn 0.000000 0.000957 1.000000
vn 0.000000 0.000957 1.000000
vn 0.000000 0.000957 1.000000
vn -1.000000 0.000000 0.000000
vn -1.000000 0.000000 0.000000
vn -1.000000 0.000000 0.000000
vn -1.000000 0.000000 0.000000
vn 0.097182 0.331768 0.938342
vn 0.097182 0.331768 0.938342
vn 0.097182 0.331768 0.938342
vn 0.097182 0.331768 0.938342
vn 1.000000 0.000000 0.000000
vn 1.000000 0.000000 0.000000
vn 1.000000 0.000000 0.000000
vn 1.000000 0.000000 0.000000
vn 0.000000 0.005135 -0.999987
vn 0.000000 0.005135 -0.999987
vn 0.000000 0.005135 -0.999987
vn 0.000000 0.005135 -0.999987
vn 0.000000 0.005135 -0.999987
vn 0.000000 0.005135 -0.999987
vn 0.000000 0.005135 -0.999987
vn 0.000000 0.005135 -0.999987
vn -1.000000 -0.000000 0.000000
vn -1.000000 -0.000000 0.000000
vn -1.000000 -0.000000 0.000000
vn -1.000000 -0.000000 0.000000
vn 1.000000 0.000000 0.000000
vn 1.000000 0.000000 0.000000
vn 1.000000 0.000000 0.000000
vn 1.000000 0.000000 0.000000
vn -1.000000 -0.000000 0.000000
vn -1.000000 -0.000000 0.000000
vn -1.000000 -0.000000 0.000000
vn -1.000000 -0.000000 0.000000
vn 1.000000 0.000000 0.000000
vn 1.000000 0.000000 0.000000
vn 1.000000 0.000000 0.000000
vn 1.000000 0.000000 0.000000
vn 0.000000 1.000000 0.000000
vn 0.000000 1.000000 0.000000
vn 0.000000 1.000000 0.000000
vn 0.000000 1.000000 0.000000
vn 0.000000 1.000000 0.000000
vn 0.000000 1.000000 0.000000
vn 0.000000 1.000000 0.000000
vn 0.000000 1.000000 0.000000
vn -1.000000 0.000000 0.000000
vn -1.000000 0.000000 0.000000
vn -1.000000 0.000000 0.000000
vn -1.000000 0.000000 0.000000
vn 0.000000 0.000957 1.000000
vn 0.000000 0.000957 1.000000
vn 0.000000 0.000957 1.000000
vn 0.000000 0.000957 1.000000
vn 0.000000 1.000000 0.000010
vn 0.000000 1.000000 0.000010
vn 0.000000 1.000000 0.000010
vn 0.000000 1.000000 0.000010
vn 0.000000 1.000000 -0.000009
vn 0.000000 1.000000 -0.000009
vn 0.000000 1.000000 -0.000009
vn 0.000000 1.000000 -0.000009
vn 0.000000 0.005135 -0.999987
vn 0.000000 0.005135 -0.999987
vn 0.000000 0.005135 -0.999987
vn 0.000000 0.005135 -0.999987
vn 0.000000 1.000000 0.000000
vn 0.000000 1.000000 0.000000
vn 0.000000 1.000000 0.000000
vn 0.000000 1.000000 0.000000
vn 0.000000 1.000000 0.000000
vn 0.000000 1.000000 0.000000
vn 0.000000 1.000000 0.000000
vn 0.000000 1.000000 0.000000
vn 1.000000 0.000000 0.000000
vn 1.000000 0.000000 0.000000
vn 1.000000 0.000000 0.000000
vn 1.000000 0.000000 0.000000
vn 0.000000 1.000000 0.000000
vn 0.000000 1.000000 0.000000
vn 0.000000 1.000000 0.000000
vn 0.000000 1.000000 0.000000
vn -1.000000 0.000000 0.000000
vn -1.000000 0.000000 0.000000
vn -1.000000 0.000000 0.000000
vn -1.000000 0.000000 0.000000
vn 0.000000 1.000000 0.000000
vn 0.000000 1.000000 0.000000
vn 0.000000 1.000000 0.000000
vn 0.000000 1.000000 0.000000
s 1
g polySurface14 group4
usemtl initialShadingGroup
f 8/2/1 9/9/2 10/10/3 11/20/4
s off
f 6/5/5 7/6/6 3/7/7 4/47/8
s 2
f 14/21/9 15/22/10 16/23/11 17/26/12
s off
f 2/14/13 5/13/14 4/8/15 3/49/16
f 26/15/17 27/16/18 28/17/19 29/18/20
s 2
f 18/27/21 15/22/10 14/21/9 19/29/22
s off
f 13/30/23 8/2/24 15/22/25 18/27/26
s 1
f 12/31/27 9/9/2 8/2/1 13/30/28
s off
f 20/19/29 21/24/30 22/25/31 23/28/32
f 2/14/33 3/49/34 11/48/35 10/3/36
f 3/7/37 7/6/38 8/44/39 11/4/40
f 24/32/41 20/19/42 23/28/43 25/33/44
f 28/17/45 27/16/46 30/36/47 31/40/48
f 6/5/49 4/47/50 16/46/51 15/42/52
f 4/8/53 5/13/54 17/12/55 16/11/56
f 35/50/57 34/51/58 36/52/59 37/53/60
f 34/51/61 38/54/62 39/55/63 36/52/64
f 26/15/65 29/18/66 32/56/67 33/57/68
f 7/6/69 6/5/70 15/43/71 8/1/72
f 29/18/73 28/17/74 31/40/75 32/56/76
f 2/58/77 10/59/78 22/25/79 21/24/80
f 10/10/81 9/9/82 23/34/83 22/35/84
f 9/9/85 12/31/86 25/37/87 23/34/88
f 12/60/89 1/61/90 24/32/91 25/33/92
f 1/61/93 12/60/94 30/36/95 27/16/96
f 12/31/97 13/30/98 31/38/99 30/39/100
f 18/27/101 19/29/102 33/41/103 32/45/104
f 39/55/105 38/54/106 40/62/107 41/63/108
f 13/30/109 18/27/110 32/45/111 31/38/112
f 14/21/113 17/26/114 37/66/115 36/67/116
f 17/64/117 5/65/118 35/50/119 37/53/120
f 19/29/121 14/21/122 36/67/123 39/68/124
f 26/15/125 33/57/126 41/63/127 40/62/128
f 33/41/129 19/29/130 39/68/131 41/69/132
g default
v -2.076904 -0.947006 -4.085729
v 3.472368 -0.947006 -3.049879
v -2.076904 0.666289 -4.085729
v 3.472368 0.666289 -3.049879
v -2.076904 0.666289 -9.275400
v 3.472368 0.666289 -10.311248
v -2.076904 -0.947006 -9.275400
v 3.472368 -0.947006 -10.311248
vt 0.508826 0.804573
vt 0.370741 0.778798
vt 0.831015 0.734157
vt 0.692930 0.759932
vt 0.831015 0.914845
vt 0.692930 0.889070
vt 0.370741 0.959486
vt 0.508826 0.933711
vt 0.917459 0.003278
vt 0.917459 0.143748
vt 0.877315 0.143748
vt 0.877315 0.003278
vt 0.877315 0.324436
vt 0.917459 0.324436
vn 0.000000 1.000000 0.000000
vn 0.000000 1.000000 0.000000
vn 0.000000 1.000000 0.000000
vn 0.000000 1.000000 0.000000
vn -0.183494 0.000000 -0.983021
vn -0.183494 0.000000 -0.983021
vn -0.183494 0.000000 -0.983021
vn -0.183494 0.000000 -0.983021
vn 0.000000 -1.000000 0.000000
vn 0.000000 -1.000000 0.000000
vn 0.000000 -1.000000 0.000000
vn 0.000000 -1.000000 0.000000
vn 1.000000 0.000000 0.000000
vn 1.000000 0.000000 0.000000
vn 1.000000 0.000000 0.000000
vn 1.000000 0.000000 0.000000
s off
g group4 polySurface11
usemtl initialShadingGroup
f 44/73/133 45/72/134 47/74/135 46/75/136
f 46/78/137 47/79/138 49/80/139 48/81/140
f 48/77/141 49/76/142 43/71/143 42/70/144
f 43/82/145 49/80/146 47/79/147 45/83/148
g default
v 3.466980 -0.947006 -2.960931
v -2.082283 -0.947006 -3.999503
v 3.466980 0.666289 -2.960931
v -2.082283 0.666289 -3.999503
v 3.466980 0.666289 2.957094
v -2.082283 0.666289 3.995667
v 3.466980 -0.947006 2.957094
v -2.082283 -0.947006 4.138321
vt 0.848201 0.493211
vt 0.986287 0.519054
vt 0.830733 0.691795
vt 0.968818 0.665952
vt 0.830733 0.492847
vt 0.968818 0.518690
vt 0.986287 0.316556
vt 0.848201 0.345949
vt 0.923896 0.315124
vt 0.923896 0.167863
vt 0.964041 0.167863
vt 0.964041 0.315124
vn 0.000000 1.000000 0.000000
vn 0.000000 1.000000 0.000000
vn 0.000000 1.000000 0.000000
vn 0.000000 1.000000 0.000000
vn 0.000000 -1.000000 0.000000
vn 0.000000 -1.000000 0.000000
vn 0.000000 -1.000000 0.000000
vn 0.000000 -1.000000 0.000000
vn 1.000000 0.000000 0.000000
vn 1.000000 0.000000 0.000000
vn 1.000000 0.000000 0.000000
vn 1.000000 0.000000 0.000000
s off
g group4 polySurface12
usemtl initialShadingGroup
f 52/87/149 53/86/150 55/88/151 54/89/152
f 56/91/153 57/90/154 51/85/155 50/84/156
f 56/92/157 50/93/158 52/94/159 54/95/160
g default
v -2.076904 -0.947006 9.233248
v 3.472368 -0.947006 10.269097
v -2.076904 0.666289 9.233248
v 3.472368 0.666289 10.269097
v -2.076904 0.666289 4.043579
v 3.472368 0.666289 3.007729
v -2.076904 -0.947006 4.043579
v 3.472368 -0.947006 3.007729
vt 0.660216 0.739055
vt 0.522131 0.713279
vt 0.982405 0.668637
vt 0.844319 0.694413
vt 0.982405 0.849326
vt 0.844319 0.823550
vt 0.522131 0.893968
vt 0.660216 0.868192
vt 0.830733 0.324436
vt 0.830733 0.183966
vt 0.870878 0.183966
vt 0.870878 0.324436
vt 0.830733 0.003277
vt 0.870878 0.003277
vn -0.183495 0.000000 0.983021
vn -0.183495 0.000000 0.983021
vn -0.183495 0.000000 0.983021
vn -0.183495 0.000000 0.983021
vn 0.000000 1.000000 0.000000
vn 0.000000 1.000000 0.000000
vn 0.000000 1.000000 0.000000
vn 0.000000 1.000000 0.000000
vn 0.000000 -1.000000 0.000000
vn 0.000000 -1.000000 0.000000
vn 0.000000 -1.000000 0.000000
vn 0.000000 -1.000000 0.000000
vn 1.000000 0.000000 0.000000
vn 1.000000 0.000000 0.000000
vn 1.000000 0.000000 0.000000
vn 1.000000 0.000000 0.000000
s off
g group4 polySurface13
usemtl initialShadingGroup
f 58/104/161 59/105/162 61/106/163 60/107/164
f 60/99/165 61/98/166 63/100/167 62/101/168
f 64/103/169 65/102/170 59/97/171 58/96/172
f 59/105/173 65/108/174 63/109/175 61/106/176
